<svg width="16" height="16" viewBox="0 0 16 16" fill="none" xmlns="http://www.w3.org/2000/svg">
<path d="M3.00001 5.33335L10.0533 1.96001C10.1333 1.92174 10.2201 1.8998 10.3086 1.89548C10.3972 1.89115 10.4857 1.90453 10.569 1.93482C10.6523 1.96512 10.7287 2.01172 10.7938 2.07191C10.8589 2.13209 10.9113 2.20466 10.948 2.28535L12.3333 5.33335M4.00001 6.66668V5.33335M4.00001 9.33335V10M4.00001 12.6667V14M2.66668 5.33335H13.3333C14.0697 5.33335 14.6667 5.9303 14.6667 6.66668V12.6667C14.6667 13.4031 14.0697 14 13.3333 14H2.66668C1.9303 14 1.33334 13.4031 1.33334 12.6667V6.66668C1.33334 5.9303 1.9303 5.33335 2.66668 5.33335Z" stroke="black" stroke-width="2" stroke-linecap="round" stroke-linejoin="round"/>
</svg>
